<?xml version="1.0" encoding="UTF-8" standalone="no"?>
<!-- Created with Inkscape (http://www.inkscape.org/) -->

<svg
   width="209.36934mm"
   height="117.79233mm"
   viewBox="0 0 209.36934 117.79233"
   version="1.1"
   id="svg1"
   inkscape:version="1.3 (0e150ed6c4, 2023-07-21)"
   sodipodi:docname="roda_logo_lightgray4.svg"
   xml:space="preserve"
   xmlns:inkscape="http://www.inkscape.org/namespaces/inkscape"
   xmlns:sodipodi="http://sodipodi.sourceforge.net/DTD/sodipodi-0.dtd"
   xmlns="http://www.w3.org/2000/svg"
   xmlns:svg="http://www.w3.org/2000/svg"><sodipodi:namedview
     id="namedview1"
     pagecolor="#505050"
     bordercolor="#ffffff"
     borderopacity="1"
     inkscape:showpageshadow="0"
     inkscape:pageopacity="0"
     inkscape:pagecheckerboard="1"
     inkscape:deskcolor="#505050"
     inkscape:document-units="mm"
     inkscape:zoom="0.83105474"
     inkscape:cx="217.19388"
     inkscape:cy="1345.8801"
     inkscape:window-width="1920"
     inkscape:window-height="1009"
     inkscape:window-x="-8"
     inkscape:window-y="1192"
     inkscape:window-maximized="1"
     inkscape:current-layer="layer1"
     showgrid="false" /><defs
     id="defs1" /><g
     inkscape:label="Layer 1"
     inkscape:groupmode="layer"
     id="layer1"
     transform="translate(100.15381,-762.38826)"><g
       id="g2"><rect
         style="fill:none;fill-opacity:1;stroke:none;stroke-width:0.0973364"
         id="rect1"
         width="209.36934"
         height="117.79234"
         x="-100.15382"
         y="762.38824" /><path
         d="m -66.87485,826.24528 h 12.66936 l 44.05481,51.39728 h 38.72792 l -44.63069,-52.98095 q 9.50202,-3.31131 14.25303,-11.37363 4.89497,-8.20629 5.03895,-19.00403 v -0.28794 q 0,-6.04674 -2.59146,-10.79775 -2.59147,-4.89498 -6.91056,-8.35026 -4.3191,-3.45528 -9.78996,-5.18292 -5.47086,-1.87161 -11.22966,-1.87161 h -71.4091 v 26.92239 h 64.64251 q 0.86382,0 1.72764,1.15176 1.00779,1.15176 1.00779,1.87161 0,0.71985 -0.57588,2.01558 -0.57588,1.15176 -1.58367,1.15176 h -65.21839 v 48.80582 l 8.06231,9.35805 h 23.75505 z m 111.72077,-24.9068 v 30.80956 h 27.35429 q 1.58367,0 2.01558,-1.00778 0.57587,-1.15177 0.57587,-2.30352 v -30.80957 q 0,-1.15176 -0.57587,-2.15955 -0.43191,-1.15176 -2.01558,-1.15176 H 12.16473 v -26.92239 h 66.22618 q 6.47865,0 11.5176,2.30352 5.03895,2.30352 8.49423,6.19071 3.59925,3.88719 5.47086,9.21408 1.87161,5.18292 1.87161,11.22966 v 33.545 q 0,6.04674 -1.87161,11.37363 -1.87161,5.18292 -5.47086,9.0701 -3.45528,3.8872 -8.49423,6.19072 -5.03895,2.15955 -11.5176,2.15955 H 18.93132 l -6.76659,-8.06232 v -49.66964 z"
         id="text2"
         style="font-size:116.592px;line-height:1.25;font-family:Renegado;-inkscape-font-specification:'Renegado, Normal';stroke:#ffffff;stroke-width:0"
         aria-label="RD" /><path
         d="m -65.7713,823.25789 h 12.58841 l 43.77331,51.06887 h 38.48045 l -44.3455,-52.64242 q 9.4413,-3.29015 14.16194,-11.30095 4.86371,-8.15386 5.00676,-18.88261 v -0.2861 q 0,-6.0081 -2.5749,-10.72875 -2.5749,-4.8637 -6.8664,-8.2969 -4.2915,-3.4332 -9.7274,-5.1498 -5.43591,-1.85965 -11.15791,-1.85965 h -70.95281 v 26.75035 h 64.22946 q 0.8583,0 1.7166,1.1444 1.00135,1.1444 1.00135,1.85965 0,0.71525 -0.5722,2.0027 -0.5722,1.1444 -1.57355,1.1444 h -64.80166 v 48.49397 l 8.0108,9.29824 H -65.7713 Z M 45.23559,798.51023 v 30.61271 h 27.1795 q 1.57356,0 2.00271,-1.00136 0.5722,-1.14439 0.5722,-2.28879 v -30.61271 q 0,-1.1444 -0.5722,-2.14575 -0.42915,-1.1444 -2.00271,-1.1444 H 12.76323 v -26.75035 h 65.80301 q 6.43726,0 11.44401,2.2888 5.00675,2.2888 8.43994,6.15115 3.57626,3.86235 5.43591,9.1552 1.85965,5.1498 1.85965,11.1579 v 33.33066 q 0,6.00811 -1.85965,11.30096 -1.85965,5.1498 -5.43591,9.01215 -3.43319,3.86235 -8.43994,6.15115 -5.00675,2.14574 -11.44401,2.14574 H 19.48658 l -6.72335,-8.0108 v -49.35226 z"
         id="text3"
         style="font-size:115.847px;line-height:1.25;font-family:Renegado;-inkscape-font-specification:'Renegado, Normal';fill:#e9e9e9;fill-opacity:1;stroke:#ffffff;stroke-width:0"
         aria-label="RD" /></g></g></svg>
